<?xml version="1.0" encoding="UTF-8"?>
<svg width="24px" height="24px" viewBox="0 0 24 24" version="1.1" xmlns="http://www.w3.org/2000/svg">
    <title>Facebook Icon</title>
    <g stroke="none" stroke-width="1" fill="none" fill-rule="evenodd">
        <path d="M22,12.0605556 C22,6.50111111 17.5233333,2 12,2 C6.47666667,2 2,6.50111111 2,12.0605556 C2,17.0827778 5.656,21.2444444 10.4366667,22 L10.4366667,14.9694444 L7.89833333,14.9694444 L7.89833333,12.0605556 L10.4366667,12.0605556 L10.4366667,9.85555556 C10.4366667,7.32555556 11.93,5.93 14.215,5.93 C15.31,5.93 16.455,6.12666667 16.455,6.12666667 L16.455,8.60222222 L15.1916667,8.60222222 C13.95,8.60222222 13.5633333,9.37777778 13.5633333,10.1733333 L13.5633333,12.0605556 L16.335,12.0605556 L15.8916667,14.9694444 L13.5633333,14.9694444 L13.5633333,22 C18.344,21.2444444 22,17.0827778 22,12.0605556" fill="#FFFFFF" fill-rule="nonzero"></path>
    </g>
</svg>
