<?xml version="1.0" encoding="UTF-8"?>
<svg width="50" height="50" viewBox="0 0 200 200" xmlns="http://www.w3.org/2000/svg">
  <defs>
    <linearGradient id="logoGradient" x1="0%" y1="0%" x2="100%" y2="100%">
      <stop offset="0%" stop-color="#4338CA" />
      <stop offset="100%" stop-color="#3730A3" />
    </linearGradient>
    <filter id="shadow" x="-20%" y="-20%" width="140%" height="140%">
      <feGaussianBlur in="SourceAlpha" stdDeviation="3" />
      <feOffset dx="0" dy="2" result="offsetblur" />
      <feComponentTransfer>
        <feFuncA type="linear" slope="0.3" />
      </feComponentTransfer>
      <feMerge>
        <feMergeNode />
        <feMergeNode in="SourceGraphic" />
      </feMerge>
    </filter>
  </defs>
  
  <!-- Background Circle -->
  <circle cx="100" cy="100" r="95" fill="white" stroke="url(#logoGradient)" stroke-width="3" />
  
  <!-- Plate with Food -->
  <ellipse cx="100" cy="130" rx="70" ry="20" fill="#F3F4F6" stroke="url(#logoGradient)" stroke-width="2" />
  <ellipse cx="100" cy="125" rx="50" ry="15" fill="#F3F4F6" stroke="url(#logoGradient)" stroke-width="1" opacity="0.7" />
  
  <!-- Food Items -->
  <g filter="url(#shadow)">
    <!-- Burger/Sandwich -->
    <rect x="70" y="90" width="60" height="10" rx="5" fill="#F97316" />
    <rect x="70" y="100" width="60" height="8" rx="4" fill="#84CC16" />
    <rect x="70" y="108" width="60" height="12" rx="4" fill="#EF4444" />
    <rect x="70" y="120" width="60" height="10" rx="5" fill="#F97316" />
    
    <!-- Fork -->
    <path d="M50,50 L50,100" stroke="url(#logoGradient)" stroke-width="4" stroke-linecap="round" fill="none" />
    <path d="M50,50 L40,40" stroke="url(#logoGradient)" stroke-width="3" stroke-linecap="round" fill="none" />
    <path d="M50,50 L50,40" stroke="url(#logoGradient)" stroke-width="3" stroke-linecap="round" fill="none" />
    <path d="M50,50 L60,40" stroke="url(#logoGradient)" stroke-width="3" stroke-linecap="round" fill="none" />
    
    <!-- Knife -->
    <path d="M150,50 L150,100" stroke="url(#logoGradient)" stroke-width="4" stroke-linecap="round" fill="none" />
    <path d="M150,50 L140,35" stroke="url(#logoGradient)" stroke-width="3" stroke-linecap="round" fill="none" />
    <path d="M150,50 L160,35" stroke="url(#logoGradient)" stroke-width="3" stroke-linecap="round" fill="none" />
    
    <!-- Question Mark - removed for small version -->
  </g>
</svg>
